<?xml version="1.0" encoding="UTF-8" standalone="no"?>
<svg
   xmlns:dc="http://purl.org/dc/elements/1.1/"
   xmlns:cc="http://creativecommons.org/ns#"
   xmlns:rdf="http://www.w3.org/1999/02/22-rdf-syntax-ns#"
   xmlns:svg="http://www.w3.org/2000/svg"
   xmlns="http://www.w3.org/2000/svg"
   id="svg2"
   version="1.1"
   width="20"
   height="20"
   viewBox="0 0 20 20">
  <metadata
     id="metadata8">
    <rdf:RDF>
      <cc:Work
         rdf:about="">
        <dc:format>image/svg+xml</dc:format>
        <dc:type
           rdf:resource="http://purl.org/dc/dcmitype/StillImage" />
        <dc:title></dc:title>
      </cc:Work>
    </rdf:RDF>
  </metadata>
  <defs
     id="defs6" />
  <circle
     r="9.5"
     cy="10"
     cx="10"
     id="path4134"
     style="fill:#efeff4;fill-opacity:1;stroke:none;stroke-width:1.79900002;stroke-miterlimit:4;stroke-dasharray:none;stroke-opacity:1" />
  <path
     style="fill:#007f00;fill-opacity:1"
     d="M 12.170481,16.749402 C 10.574405,16.687274 10.172314,16.64112 8.4663656,16.324227 7.6434629,16.171367 6.9446738,16.040534 6.9135005,16.033487 l -0.056678,-0.01282 0.00638,-3.073594 0.00638,-3.0735936 0.2388869,-0.01309 c 0.3191793,-0.01749 0.4236555,-0.0713 0.731108,-0.376534 C 8.2849955,9.0416672 8.7737963,8.1957426 9.2708825,7.0068444 9.3980982,6.7025778 9.53625,6.3935656 9.5778882,6.3201499 9.6859013,6.1297005 9.8862779,5.9228965 10.251403,5.6250302 c 0.503299,-0.4105857 0.702146,-0.6683898 0.900145,-1.1670386 0.183277,-0.4615688 0.341173,-1.2903517 0.407868,-2.1408752 0.03233,-0.4123388 0.05573,-0.4690688 0.216045,-0.5239688 0.125658,-0.043031 0.402985,-0.020878 0.618638,0.049425 0.274744,0.089559 0.448361,0.1983647 0.676645,0.424051 0.251599,0.2487338 0.357561,0.4394419 0.468164,0.8425932 0.06444,0.2348916 0.06902,0.2845978 0.0694,0.7543801 6.01e-4,0.7471135 -0.06517,0.985862 -0.531241,1.9280149 -0.446714,0.9030319 -0.587344,1.2988604 -0.587344,1.6531811 0,0.080016 0.01144,0.1782862 0.02542,0.2183831 l 0.02542,0.0729 1.47706,0 c 1.806029,0 2.326672,0.039028 2.63962,0.1978519 0.237396,0.1204828 0.634545,0.5929595 0.797359,0.9485893 0.03444,0.07524 0.08223,0.211514 0.106174,0.302826 0.05803,0.2212742 0.03294,0.2992472 -0.198138,0.6157562 -0.213,0.2917396 -0.271183,0.3972766 -0.271183,0.4918956 0,0.09444 0.08931,0.289083 0.272792,0.594586 0.08454,0.140763 0.172321,0.312808 0.195059,0.382322 0.03848,0.117659 0.03842,0.134026 -9.01e-4,0.236983 -0.02323,0.06082 -0.137566,0.221745 -0.254079,0.357594 -0.116511,0.13585 -0.243134,0.29792 -0.281382,0.360156 -0.100539,0.163597 -0.08783,0.276269 0.08155,0.722783 0.245946,0.648344 0.230259,0.717004 -0.284538,1.245424 -0.178243,0.182959 -0.339969,0.360942 -0.359393,0.395517 -0.02482,0.04417 -0.03909,0.190251 -0.04798,0.491445 l -0.01266,0.428579 -0.08801,0.146786 c -0.180179,0.300507 -0.695158,0.750881 -1.038135,0.907901 -0.390068,0.17858 -1.535533,0.247356 -3.103301,0.186329 z M 3.6634806,16.441966 C 3.5396651,16.402196 3.3294717,16.18424 3.2917251,16.056485 3.2515251,15.920426 3.2474371,10.15017 3.2874451,10.006138 3.3263281,9.8661344 3.4596826,9.7082804 3.6001583,9.6359734 l 0.124801,-0.06424 1.0191097,0 c 0.9216991,0 1.030337,0.0043 1.1365692,0.04533 0.142701,0.05507 0.3084549,0.227354 0.3471587,0.36084 0.020132,0.06943 0.02595,0.9423076 0.020604,3.0911036 l -0.00745,2.994351 -0.076103,0.123087 c -0.04714,0.07625 -0.1229302,0.152049 -0.1991506,0.19919 l -0.1230478,0.07611 -1.0455762,0.0042 c -0.7162331,0.0029 -1.0732985,-0.0047 -1.1335871,-0.02402 z"
     id="path4138" />
</svg>
