<?xml version="1.0" encoding="UTF-8" standalone="no"?>
<svg
   xmlns:dc="http://purl.org/dc/elements/1.1/"
   xmlns:cc="http://creativecommons.org/ns#"
   xmlns:rdf="http://www.w3.org/1999/02/22-rdf-syntax-ns#"
   xmlns:svg="http://www.w3.org/2000/svg"
   xmlns="http://www.w3.org/2000/svg"
   id="svg2"
   version="1.1"
   width="20"
   height="20"
   viewBox="0 0 20 20">
  <metadata
     id="metadata8">
    <rdf:RDF>
      <cc:Work
         rdf:about="">
        <dc:format>image/svg+xml</dc:format>
        <dc:type
           rdf:resource="http://purl.org/dc/dcmitype/StillImage" />
        <dc:title></dc:title>
      </cc:Work>
    </rdf:RDF>
  </metadata>
  <defs
     id="defs6" />
  <path
     style="fill:#ffffff;fill-opacity:1"
     d="M 11.863205,17.976763 C 10.160724,17.910493 9.7318272,17.861262 7.9121492,17.523243 7.0343865,17.360192 6.2890115,17.220637 6.25576,17.21312 l -0.060456,-0.01367 0.00681,-3.2785 0.00681,-3.2785 0.2548127,-0.01396 C 6.8041946,10.60983 6.9156358,10.55244 7.2435851,10.226854 7.7186878,9.75518 8.2400753,8.8528601 8.7703005,7.5847021 c 0.1356968,-0.324551 0.2830587,-0.654164 0.3274727,-0.732474 0.115214,-0.203146 0.328949,-0.423737 0.718416,-0.741461 0.5368518,-0.437958 0.7489558,-0.712949 0.9601548,-1.244841 0.195495,-0.49234 0.363918,-1.376375 0.435059,-2.2836 0.03449,-0.439828 0.05944,-0.50034 0.230448,-0.5589 0.134035,-0.0459 0.429851,-0.02227 0.65988,0.05272 0.293061,0.09553 0.478252,0.211589 0.721755,0.452321 0.268372,0.265316 0.381398,0.468738 0.499375,0.898766 0.06874,0.250551 0.07362,0.303571 0.07403,0.804672 6.41e-4,0.796921 -0.06952,1.051586 -0.566657,2.056549 -0.476495,0.963234 -0.626501,1.385451 -0.626501,1.763393 0,0.08535 0.0122,0.190172 0.02711,0.232942 l 0.02711,0.07776 1.575531,0 c 1.92643,0 2.481783,0.04163 2.815594,0.211042 0.253222,0.128515 0.676848,0.63249 0.850516,1.0118289 0.03674,0.08026 0.08771,0.225614 0.113253,0.323014 0.0619,0.236026 0.03514,0.319197 -0.211348,0.656806 -0.2272,0.31119 -0.289262,0.423762 -0.289262,0.524689 0,0.100734 0.09526,0.308355 0.290979,0.634225 0.09018,0.150147 0.183809,0.333662 0.208062,0.40781 0.04105,0.125503 0.04098,0.142961 -9.61e-4,0.252782 -0.02478,0.06488 -0.146737,0.236528 -0.271017,0.381434 -0.124279,0.144906 -0.259343,0.317781 -0.300141,0.384166 -0.107242,0.174504 -0.09368,0.294687 0.08699,0.770969 0.262342,0.691566 0.245609,0.764804 -0.303507,1.328452 -0.190126,0.195156 -0.362634,0.385004 -0.383353,0.421884 -0.02648,0.04712 -0.04169,0.202935 -0.05118,0.524208 l -0.0135,0.457151 -0.09388,0.156572 c -0.192191,0.320541 -0.741501,0.80094 -1.107344,0.968428 -0.416072,0.190485 -1.637901,0.263846 -3.310187,0.198751 z M 2.7890724,17.648831 c -0.1320698,-0.04242 -0.3562761,-0.274908 -0.3965391,-0.41118 -0.04288,-0.145129 -0.047241,-6.300068 -0.00457,-6.453702 0.041475,-0.149338 0.18372,-0.317716 0.3335608,-0.394843 l 0.133121,-0.06852 1.0870502,0 c 0.9831457,0 1.0990261,0.0046 1.2123404,0.04835 0.1522144,0.05874 0.3290185,0.242511 0.3703026,0.384896 0.021474,0.07406 0.02768,1.005129 0.021978,3.297177 l -0.00795,3.193975 -0.081176,0.131292 c -0.050283,0.08133 -0.1311255,0.162186 -0.2124272,0.21247 l -0.131251,0.08118 -1.1152812,0.0045 c -0.7639819,0.0031 -1.1448516,-0.005 -1.2091594,-0.02562 z"
     id="path4138" />
</svg>
