<?xml version="1.0" encoding="UTF-8" standalone="no"?>
<svg
   xmlns:dc="http://purl.org/dc/elements/1.1/"
   xmlns:cc="http://creativecommons.org/ns#"
   xmlns:rdf="http://www.w3.org/1999/02/22-rdf-syntax-ns#"
   xmlns:svg="http://www.w3.org/2000/svg"
   xmlns="http://www.w3.org/2000/svg"
   viewBox="0 0 20 20"
   height="20"
   width="20"
   version="1.1"
   id="svg2">
  <metadata
     id="metadata8">
    <rdf:RDF>
      <cc:Work
         rdf:about="">
        <dc:format>image/svg+xml</dc:format>
        <dc:type
           rdf:resource="http://purl.org/dc/dcmitype/StillImage" />
        <dc:title></dc:title>
      </cc:Work>
    </rdf:RDF>
  </metadata>
  <defs
     id="defs6" />
  <path
     id="path4138"
     d="M 13.793115,16.905389 C 12.259472,15.272901 10.80661,14.691888 8.4770905,14.779465 4.7149072,14.9209 0.99999991,11.38589 0.99999991,7.6644594 c 0,-2.9222281 3.82255719,-6.74478526 6.74478539,-6.74478526 3.6545807,0 7.2315987,3.69966056 7.1245687,7.36884326 -0.06377,2.1860086 0.608383,3.8458606 2.254387,5.5671436 1.396261,1.46012 2.124464,3.027829 1.799632,3.874332 -0.789642,2.057774 -2.712804,1.748658 -5.130258,-0.824604 z M 11.756969,11.676644 C 13.452456,9.9811564 13.04954,5.9400552 11.000077,4.0853182 6.8496168,0.32920237 0.40952891,6.7692905 4.1656446,10.919752 c 1.8547366,2.049462 5.8958374,2.452379 7.5913244,0.756892 z"
     style="fill:#000000" />
</svg>
