<?xml version="1.0" encoding="UTF-8" standalone="no"?>
<svg
   xmlns:dc="http://purl.org/dc/elements/1.1/"
   xmlns:cc="http://creativecommons.org/ns#"
   xmlns:rdf="http://www.w3.org/1999/02/22-rdf-syntax-ns#"
   xmlns:svg="http://www.w3.org/2000/svg"
   xmlns="http://www.w3.org/2000/svg"
   style="fill:#000000"
   id="svg2"
   xml:space="preserve"
   enable-background="new 0 0 90 90"
   viewBox="0 0 9 9"
   y="0px"
   x="0px"
   version="1.1"
   height="20"
   width="20"><metadata
     id="metadata16"><rdf:RDF><cc:Work
         rdf:about=""><dc:format>image/svg+xml</dc:format><dc:type
           rdf:resource="http://purl.org/dc/dcmitype/StillImage" /><dc:title></dc:title></cc:Work></rdf:RDF></metadata><defs
     id="defs14" /><g
     transform="matrix(0.08079139,0,0,0.08079139,0.86438724,8.4560388)"
     id="g4144"><g
       id="g4150"><g
         transform="matrix(1.1166699,0,0,1.1166699,-2.1033699,11.561429)"
         id="g4155"><path
           d="m 48.135826,-49.661469 c 0,2.820593 -3.634183,5.097848 -8.115837,5.097848 -4.481654,0 -8.115178,-2.277255 -8.115178,-5.097848 0,-2.810374 3.633524,-5.096145 8.115178,-5.096145 4.481654,0 8.115837,2.285771 8.115837,5.096145 z"
           id="path4" /><ellipse
           cx="51.323692"
           cy="-64.667389"
           rx="5.7295036"
           ry="3.1626978"
           id="ellipse6" /><path
           d="m 68.964,-22.186996 c 4.743,-5.413 7.642,-12.478 7.642,-20.226 0,-16.957 -31.896068,-56.682202 -31.896068,-56.682202 0,0 -29.608932,39.725202 -29.608932,56.682202 0,7.252 2.538,13.913 6.75,19.175 -10.367,1.348 -17.257,3.686 -17.257,6.354 0,4.181 16.83,7.5719999 37.589,7.5719999 20.759,0 37.587,-3.3919999 37.587,-7.5719999 0.001,-2.067 -4.129,-3.939 -10.806,-5.303 z M 44.709932,-84.690012 c 0,0 26.262068,28.429016 26.262068,42.277016 0,13.853 -3.641882,-0.04749 -17.490882,-0.04749 -13.85,0 -28.551203,8.941863 -28.551203,-4.910137 -0.001,-13.849 19.780017,-37.319389 19.780017,-37.319389 z"
           id="path8" /></g></g></g></svg>