<?xml version="1.0" encoding="UTF-8" standalone="no"?>
<!-- Created with Inkscape (http://www.inkscape.org/) -->

<svg
   xmlns:dc="http://purl.org/dc/elements/1.1/"
   xmlns:cc="http://creativecommons.org/ns#"
   xmlns:rdf="http://www.w3.org/1999/02/22-rdf-syntax-ns#"
   xmlns:svg="http://www.w3.org/2000/svg"
   xmlns="http://www.w3.org/2000/svg"
   xmlns:sodipodi="http://sodipodi.sourceforge.net/DTD/sodipodi-0.dtd"
   xmlns:inkscape="http://www.inkscape.org/namespaces/inkscape"
   id="svg2"
   version="1.1"
   inkscape:version="0.91 r13725"
   width="20"
   height="20"
   viewBox="0 0 20 20"
   sodipodi:docname="icon-comment.svg"
   inkscape:export-filename="Y:\a - KLRiver GEC\dev\icon-comment.png"
   inkscape:export-xdpi="90"
   inkscape:export-ydpi="90">
  <metadata
     id="metadata8">
    <rdf:RDF>
      <cc:Work
         rdf:about="">
        <dc:format>image/svg+xml</dc:format>
        <dc:type
           rdf:resource="http://purl.org/dc/dcmitype/StillImage" />
        <dc:title></dc:title>
      </cc:Work>
    </rdf:RDF>
  </metadata>
  <defs
     id="defs6" />
  <sodipodi:namedview
     pagecolor="#ffffff"
     bordercolor="#666666"
     borderopacity="1"
     objecttolerance="10"
     gridtolerance="10"
     guidetolerance="10"
     inkscape:pageopacity="0"
     inkscape:pageshadow="2"
     inkscape:window-width="1280"
     inkscape:window-height="961"
     id="namedview4"
     showgrid="false"
     inkscape:zoom="3.97"
     inkscape:cx="-25.157431"
     inkscape:cy="12.5"
     inkscape:window-x="1272"
     inkscape:window-y="-8"
     inkscape:window-maximized="1"
     inkscape:current-layer="svg2" />
  <path
     style="fill:#000000"
     d="M 8.3552915,18.885994 C 7.5478264,18.658974 6.9248416,18.286409 6.3169805,17.667022 5.9990099,17.343021 5.6957817,17.07793 5.6431409,17.07793 c -0.052641,0 -0.3943801,0.150409 -0.7594233,0.334241 -0.5473102,0.275622 -0.7342131,0.326295 -1.0656887,0.288933 -0.9516096,-0.10726 -1.7675432,-0.8359 -1.9752208,-1.763901 L 1.731668,15.440575 4.096871,10.414251 6.4620759,5.3879265 9.393068,8.2874487 c 1.612046,1.5947365 3.372166,3.3198323 3.911376,3.8335423 l 0.980384,0.934022 -0.933645,0.430231 -0.933644,0.430231 0.100749,0.353954 c 0.153253,0.53839 0.129615,1.675447 -0.04709,2.264912 -0.525448,1.752886 -2.411926,2.830736 -4.1159161,2.351653 z m 1.8856975,-1.270071 c 0.660182,-0.305711 1.108664,-0.979278 1.207461,-1.813465 0.06234,-0.526398 -0.03024,-1.31801 -0.154154,-1.31801 -0.103013,0 -4.2785937,1.94231 -4.385292,2.039858 -0.1109582,0.101442 0.5977233,0.785356 1.0561251,1.019215 0.7428977,0.378998 1.5577839,0.404922 2.2758599,0.0724 z m 6.854377,-8.7005134 c -0.03184,-0.159198 -0.05789,-0.3962005 -0.05789,-0.5266721 0,-0.4893832 -0.306851,-1.4820107 -0.721234,-2.3331043 C 15.955687,5.3150904 15.755123,5.0419894 15.050128,4.3316061 13.787577,3.0594033 12.343183,2.3523711 10.703151,2.2037553 l -0.705123,-0.063897 0,-0.5699287 0,-0.56992976 0.777359,0.0681579 c 1.873277,0.1642461 3.591436,0.9430742 4.95004,2.2438174 1.443581,1.3820978 2.34432,3.2671357 2.491585,5.2142995 l 0.05132,0.678586 -0.557538,0 c -0.550342,0 -0.558285,-0.00372 -0.615427,-0.2894515 z m -2.242418,0.019296 C 14.831801,8.9134717 14.813994,8.7675925 14.813384,8.6105172 14.80987,7.7097569 14.196568,6.4639018 13.380969,5.7009476 12.684578,5.0495086 11.956658,4.6890971 10.947418,4.4960347 l -0.764151,-0.1461779 0,-0.5364765 0,-0.5364775 0.35568,0 c 0.522285,0 1.675141,0.3175839 2.302541,0.6342943 1.710705,0.8635618 2.898208,2.583984 3.126445,4.5295134 0.04985,0.4249086 0.03618,0.4870706 -0.108235,0.4925659 -0.09091,0.00351 -0.345963,0.01388 -0.566792,0.023151 -0.220831,0.0093 -0.418815,-4.63e-4 -0.439967,-0.021725 z M 12.508628,8.3322933 C 12.428673,7.9750077 12.287814,7.7070173 12.020162,7.4029468 11.593097,6.9177769 11.261436,6.7202776 10.71794,6.6274959 l -0.377425,-0.064431 -0.0092,-0.5801359 -0.0092,-0.5801359 0.41681,0.061721 c 1.461439,0.216413 2.548569,1.1804268 2.914198,2.5841674 0.21,0.8062478 0.221645,0.7856826 -0.444916,0.7856826 l -0.587318,0 z"
     id="path4138"
     inkscape:connector-curvature="0"
     sodipodi:nodetypes="sssssscccsscccsssssssssssssscccssscsscssscccssssscssscccssscs" />
</svg>
